# xmcd
#
# Track frame offsets: 
#        150
#        11990
#        25675
#        34607
#        45300
#        59702
#        74520
#        84804
#        102727
#        115317
#        131032
#
# Disc length: 1882 seconds
#
# Revision: 6
# Processed by: cddbd v1.5.2PL0 Copyright (c) Steve Scherf et al.
# Submitted via: ExactAudioCopy v0.99pb4
#
DISCID=9507580b
DTITLE=Hazlewood, Lee - Cowboy In Sweden
DYEAR=1970
DGENRE=Rock
TTITLE0=Pray Them Bars Away
TTITLE1=Leather and Lace
TTITLE2=Forget Marie
TTITLE3=Cold Hard Times
TTITLE4=The Night Before
TTITLE5=Hey Cowboy
TTITLE6=No Train To Stockholm
TTITLE7=For A Day Like Today
TTITLE8=Easy And Me
TTITLE9=What's More I Don't Need Her
TTITLE10=Vem Kan Segla
EXTD=
EXTT0=
EXTT1=
EXTT2=
EXTT3=
EXTT4=
EXTT5=
EXTT6=
EXTT7=
EXTT8=
EXTT9=
EXTT10=
PLAYORDER=
